<svg width="512" height="512" viewBox="0 0 512 512" fill="none" xmlns="http://www.w3.org/2000/svg">
    <path d="M365.257 67.884C387.565 138.438 378.99 221.625 337.887 288.978C296.784 356.33 230.528 401.684 156.456 413.904C179.932 426.586 206.502 433.334 233.334 433.334C331.826 433.334 411.667 353.493 411.667 255C411.667 183.708 365.257 67.884 365.257 67.884Z" fill="white"/>
    <path d="M233.334 76.6667C134.842 76.6667 55 156.508 55 255C55 322.36 92.3746 380.736 146.846 411.369C129.486 392.658 116.834 369.626 110.54 344.032C104.246 318.438 104.584 291.158 111.514 265.706C125.374 214.802 158.496 171.354 202.208 144.676C245.92 118.002 296.824 109.438 347.728 123.298C314.742 94.442 274.932 76.6667 233.334 76.6667Z" fill="white" fill-opacity="0.8"/>
</svg>